<?xml version="1.0" encoding="UTF-8"?>
<svg viewBox="0 0 1024 1024" xmlns="http://www.w3.org/2000/svg" width="128" height="128">
  <path d="M1024 512c0 282.784-229.248 512-512 512C229.216 1024 0 794.784 0 512S229.216 0 512 0c282.752 0 512 229.216 512 512z m-264.906-129.812H524.63a11.786 11.786 0 0 0-11.776 11.776 11.786 11.786 0 0 0 11.776 11.776h234.464a11.766 11.766 0 0 0 11.776-11.776 11.766 11.766 0 0 0-11.776-11.776zM524.628 476.44h45.984c6.528 0 11.808-5.28 11.808-11.776a11.772 11.772 0 0 0-11.808-11.776h-45.984a11.766 11.766 0 0 0-11.776 11.776 11.786 11.786 0 0 0 11.776 11.776z m140.248-23.56H618.86a11.752 11.752 0 0 0-11.808 11.774 11.772 11.772 0 0 0 11.808 11.776h46.016a11.786 11.786 0 0 0 11.776-11.776 11.766 11.766 0 0 0-11.776-11.776z m94.22 0h-45.506a11.746 11.746 0 0 0-11.776 11.774 11.766 11.766 0 0 0 11.776 11.776h45.504a11.766 11.766 0 0 0 11.776-11.776 11.746 11.746 0 0 0-11.776-11.776z m-234.468 94.216h45.984a11.772 11.772 0 0 0 11.808-11.776c0-6.496-5.28-11.776-11.808-11.776h-45.984a11.786 11.786 0 0 0-11.776 11.776 11.766 11.766 0 0 0 11.776 11.776z m140.248-23.56H618.86a11.772 11.772 0 0 0-11.808 11.774 11.752 11.752 0 0 0 11.808 11.776h46.016a11.766 11.766 0 0 0 11.776-11.776 11.786 11.786 0 0 0-11.776-11.776z m94.22 0h-45.506a11.766 11.766 0 0 0-11.776 11.774 11.746 11.746 0 0 0 11.776 11.776h45.504a11.746 11.746 0 0 0 11.776-11.776 11.766 11.766 0 0 0-11.776-11.776zM524.626 617.78h45.984c6.528 0 11.808-5.28 11.808-11.776 0-6.496-5.28-11.776-11.808-11.776h-45.984a11.786 11.786 0 0 0-11.776 11.776 11.786 11.786 0 0 0 11.776 11.776z m140.248-23.56H618.86a11.772 11.772 0 0 0-11.808 11.774 11.772 11.772 0 0 0 11.808 11.776h46.016a11.786 11.786 0 0 0 11.776-11.776 11.786 11.786 0 0 0-11.776-11.776z m94.22 0h-45.506a11.766 11.766 0 0 0-11.776 11.774 11.766 11.766 0 0 0 11.776 11.776h45.504a11.766 11.766 0 0 0 11.776-11.776 11.766 11.766 0 0 0-11.776-11.776z m97.124-238.034c-6.528-52.96-16.032-67.456-44.096-67.456H496.668a11.786 11.786 0 0 0-11.776 11.776 11.766 11.766 0 0 0 11.776 11.776h315.456c9.952 0 14.944 0 20.736 46.816 10.144 81.952 10.144 225.728 0 307.616-5.632 45.6-10.368 45.6-20.736 45.6H496.668a11.786 11.786 0 0 0-11.776 11.776 11.766 11.766 0 0 0 11.776 11.776h315.456c28.544 0 37.6-13.632 44.096-66.24 10.336-83.456 10.336-229.92 0-313.44z m-644.376-43.906h12.864c6.496 0 11.808-5.248 11.808-11.776 0-6.496-5.312-11.776-11.808-11.776h-12.864c-28.064 0-37.536 14.496-44.096 67.456-10.336 83.456-10.336 229.952 0 313.44 6.496 52.64 15.584 66.24 44.096 66.24h12.864c6.496 0 11.808-5.248 11.808-11.776 0-6.496-5.312-11.776-11.808-11.776h-12.864c-10.336 0-15.072 0-20.704-45.6-10.176-81.92-10.176-225.696 0-307.616 5.792-46.816 10.752-46.816 20.704-46.816z m206.252 425.282c0 12.128-9.248 21.984-20.64 21.984h-77.568c-11.392 0-20.64-9.856-20.64-21.984V286.396c0-12.128 9.248-21.952 20.64-21.952h77.568c11.392 0 20.64 9.824 20.64 21.952v451.168z m-20.64-496.672h-77.568c-24.384 0-44.192 20.416-44.192 45.504v451.168c0 25.12 19.808 45.568 44.192 45.568h77.568c24.384 0 44.192-20.448 44.192-45.568V286.396c0-25.088-19.808-45.504-44.192-45.504z" fill="#05BFDD" />
</svg>

